<svg width="98" height="98" xmlns="http://www.w3.org/2000/svg" xmlns:xlink="http://www.w3.org/1999/xlink" overflow="hidden"><defs><clipPath id="clip0"><path d="M591 311 689 311 689 409 591 409Z" fill-rule="evenodd" clip-rule="evenodd"/></clipPath><clipPath id="clip1"><path d="M592 312 688 312 688 408 592 408Z" fill-rule="evenodd" clip-rule="evenodd"/></clipPath><clipPath id="clip2"><path d="M592 312 688 312 688 408 592 408Z" fill-rule="evenodd" clip-rule="evenodd"/></clipPath><clipPath id="clip3"><path d="M592 312 688 312 688 408 592 408Z" fill-rule="evenodd" clip-rule="evenodd"/></clipPath></defs><g clip-path="url(#clip0)" transform="translate(-591 -311)"><g clip-path="url(#clip1)"><g clip-path="url(#clip2)"><g clip-path="url(#clip3)"><path d="M665 359C663.3 359 662 357.7 662 356 662 354.3 663.3 353 665 353 666.7 353 668 354.3 668 356 668 357.7 666.7 359 665 359ZM659 365C657.3 365 656 363.7 656 362 656 360.3 657.3 359 659 359 660.7 359 662 360.3 662 362 662 363.7 660.7 365 659 365ZM653 359C651.3 359 650 357.7 650 356 650 354.3 651.3 353 653 353 654.7 353 656 354.3 656 356 656 357.7 654.7 359 653 359ZM659 347C660.7 347 662 348.3 662 350 662 351.7 660.7 353 659 353 657.3 353 656 351.7 656 350 656 348.3 657.3 347 659 347ZM627 358 623 358 623 362C623 363.1 622.1 364 621 364 619.9 364 619 363.1 619 362L619 358 615 358C613.9 358 613 357.1 613 356 613 354.9 613.9 354 615 354L619 354 619 350C619 348.9 619.9 348 621 348 622.1 348 623 348.9 623 350L623 354 627 354C628.1 354 629 354.9 629 356 629 357.1 628.1 358 627 358ZM663 332C651.2 332 657.2 338 640 338 622.8 338 628.8 332 617 332 604.4 332 588.4 388 605 388 620.3 388 614.5 374 640 374 665.5 374 659.7 388 675 388 691.6 388 675.6 332 663 332Z" fill="#000000"/></g></g></g></g></svg>