<svg viewBox="0 0 96 96" xmlns="http://www.w3.org/2000/svg" xmlns:xlink="http://www.w3.org/1999/xlink" id="Icons_Sphere" overflow="hidden"><g id="Icons"><path d="M48 10C27.0132 10 10 27.0132 10 48 10 68.9868 27.0132 86 48 86 68.9868 86 86 68.9868 86 48 86 27.0132 68.9868 10 48 10ZM56.6 78.815C56.918 78.483 57.232 78.138 57.537 77.77L56 76.493C55.2075 77.4648 54.301 78.3377 53.3 79.093L53.6 79.498C49.8939 80.166 46.0981 80.166 42.392 79.498L42.692 79.093C41.691 78.3377 40.7845 77.4648 39.992 76.493L38.459 77.77C38.759 78.138 39.078 78.483 39.396 78.815 22.3774 74.0685 12.4288 56.4244 17.1753 39.4058 20.1825 28.6231 28.6071 20.1967 39.389 17.187 38.8716 17.7314 38.3839 18.3032 37.928 18.9L39.516 20.117C40.2733 19.1099 41.1399 18.19 42.1 17.374L41.506 16.663C45.7882 15.779 50.2058 15.779 54.488 16.663L53.894 17.374C54.855 18.1892 55.7227 19.1085 56.481 20.115L58.072 18.9C57.616 18.3039 57.1283 17.7327 56.611 17.189 73.6277 21.9424 83.5691 39.5906 78.8156 56.6073 75.8047 67.3861 67.3799 75.8079 56.6 78.815Z"/><path d="M57.783 74 59.483 75.057C60.2071 73.887 60.8567 72.6726 61.428 71.421L59.611 70.585C59.0741 71.7607 58.4636 72.9013 57.783 74Z"/><path d="M61.769 25.34C61.2245 24.0787 60.6061 22.8505 59.917 21.662L58.19 22.671C58.8399 23.7907 59.4226 24.9481 59.935 26.137Z"/><path d="M63.488 39.752 65.473 39.502C65.303 38.155 65.087 36.802 64.831 35.487L62.868 35.869C63.115 37.142 63.324 38.449 63.488 39.752Z"/><path d="M62.179 32.8 64.116 32.307C63.776 30.969 63.384 29.653 62.95 28.394L61.06 29.046C61.475 30.254 61.852 31.517 62.179 32.8Z"/><path d="M60.792 67.7 62.671 68.386C63.124 67.146 63.539 65.836 63.905 64.493L61.976 63.967C61.624 65.26 61.227 66.516 60.792 67.7Z"/><path d="M63.739 53.912 65.731 54.09C65.851 52.76 65.931 51.396 65.971 50.037L63.971 49.979C63.933 51.3 63.855 52.621 63.739 53.912Z"/><path d="M63.807 42.889C63.907 44.177 63.968 45.501 63.99 46.825L65.99 46.791C65.967 45.427 65.902 44.063 65.801 42.735Z"/><path d="M62.709 60.917 64.666 61.328C64.939 60.028 65.174 58.676 65.366 57.319L63.386 57.043C63.2 58.355 62.973 59.658 62.709 60.917Z"/><path d="M33.132 35.869 31.169 35.487C30.913 36.804 30.697 38.155 30.527 39.502L32.512 39.752C32.676 38.449 32.885 37.142 33.132 35.869Z"/><path d="M32.193 42.889 30.2 42.735C30.1 44.063 30.034 45.427 30.011 46.791L32.011 46.825C32.032 45.5 32.1 44.177 32.193 42.889Z"/><path d="M34.94 29.048 33.05 28.4C32.616 29.659 32.224 30.975 31.884 32.313L33.821 32.806C34.148 31.517 34.525 30.254 34.94 29.048Z"/><path d="M37.81 22.671 36.083 21.662C35.3939 22.8505 34.7755 24.0787 34.231 25.34L36.065 26.14C36.5773 24.9501 37.16 23.7917 37.81 22.671Z"/><path d="M34.024 63.971 32.1 64.5C32.466 65.843 32.881 67.153 33.334 68.393L35.213 67.707C34.773 66.516 34.376 65.26 34.024 63.971Z"/><path d="M34.575 71.424C35.1463 72.6756 35.796 73.8901 36.52 75.06L38.217 74C37.5375 72.9012 36.9279 71.7606 36.392 70.585Z"/><path d="M32.617 57.043 30.637 57.319C30.826 58.676 31.061 60.019 31.337 61.328L33.294 60.917C33.027 59.658 32.8 58.355 32.617 57.043Z"/><path d="M32.029 49.979 30.029 50.037C30.069 51.396 30.149 52.76 30.269 54.09L32.261 53.912C32.145 52.621 32.067 51.3 32.029 49.979Z"/></g></svg>