<svg width="114" height="114" xmlns="http://www.w3.org/2000/svg" xmlns:xlink="http://www.w3.org/1999/xlink" overflow="hidden"><defs><clipPath id="clip0"><path d="M252 261 366 261 366 375 252 375Z" fill-rule="evenodd" clip-rule="evenodd"/></clipPath><clipPath id="clip1"><path d="M259 268 359 268 359 368 259 368Z" fill-rule="evenodd" clip-rule="evenodd"/></clipPath><clipPath id="clip2"><path d="M259 268 359 268 359 368 259 368Z" fill-rule="evenodd" clip-rule="evenodd"/></clipPath><clipPath id="clip3"><path d="M259 268 359 268 359 368 259 368Z" fill-rule="evenodd" clip-rule="evenodd"/></clipPath></defs><g clip-path="url(#clip0)" transform="translate(-252 -261)"><g clip-path="url(#clip1)"><g clip-path="url(#clip2)"><g clip-path="url(#clip3)"><path d="M340.25 288.833 322.542 288.833 322.542 283.625C322.542 279.563 319.313 276.333 315.25 276.333L302.75 276.333C298.688 276.333 295.458 279.563 295.458 283.625L295.458 288.833 277.75 288.833C275.458 288.833 273.583 290.708 273.583 293L273.583 297.167 344.417 297.167 344.417 293C344.417 290.708 342.542 288.833 340.25 288.833ZM301.708 283.625C301.708 283 302.125 282.583 302.75 282.583L315.25 282.583C315.875 282.583 316.292 283 316.292 283.625L316.292 288.833 301.708 288.833 301.708 283.625Z" fill="#000000"/><path d="M279.833 355.5C279.833 357.792 281.708 359.667 284 359.667L334 359.667C336.292 359.667 338.167 357.792 338.167 355.5L338.167 301.333 279.833 301.333 279.833 355.5ZM322.542 307.583 328.792 307.583 328.792 353.417 322.542 353.417 322.542 307.583ZM305.875 307.583 312.125 307.583 312.125 353.417 305.875 353.417 305.875 307.583ZM289.208 307.583 295.458 307.583 295.458 353.417 289.208 353.417 289.208 307.583Z" fill="#000000"/></g></g></g></g></svg>