<svg width="98" height="98" xmlns="http://www.w3.org/2000/svg" xmlns:xlink="http://www.w3.org/1999/xlink" overflow="hidden"><defs><clipPath id="clip0"><path d="M591 311 689 311 689 409 591 409Z" fill-rule="evenodd" clip-rule="evenodd"/></clipPath><clipPath id="clip1"><path d="M592 312 688 312 688 408 592 408Z" fill-rule="evenodd" clip-rule="evenodd"/></clipPath><clipPath id="clip2"><path d="M592 312 688 312 688 408 592 408Z" fill-rule="evenodd" clip-rule="evenodd"/></clipPath><clipPath id="clip3"><path d="M592 312 688 312 688 408 592 408Z" fill-rule="evenodd" clip-rule="evenodd"/></clipPath></defs><g clip-path="url(#clip0)" transform="translate(-591 -311)"><g clip-path="url(#clip1)"><g clip-path="url(#clip2)"><g clip-path="url(#clip3)"><path d="M669.94 386.61 669.94 378.61 681.69 379.61 673.85 367.55 678.65 368.84 673 360.22 676.49 360.66 668.19 348.59 663.93 354.81 655.45 341.81 660.87 342.49 648 323.48 635.13 342.48 640.55 341.8 631.74 355.32 639.19 353.32 627 372.26 645 368.87 645 381.18C639.08 381.31 633.56 382.6 629.25 385.36 633.25 387.44 637.48 391.01 641.34 397L684 397C680.78 392.91 675.77 389.33 669.94 386.61ZM663.68 355.17 660.76 359.44 656.76 353.29ZM660.46 370.74 654.69 379.61 666 378.61 666 385C660.86 383.057 655.475 381.836 650 381.37L650 368.87Z" fill="#000000"/><path d="M624.19 386.46 624 386.46 624 383 629 384 625.34 377.26 628 378 624.85 373.21 626.79 373.45 622 367 617.6 373.43 619.53 373.19 617.83 375.78 614.08 369.78 618.2 370.89 613.33 363.48 616.33 363.85 609.21 353.46 602.09 363.83 605.09 363.46 600.22 370.87 604.34 369.76 597.6 380.14 607 379 607 389C602.834 390.903 599.094 393.623 596 397L637.72 397C633.19 390.65 628.29 387.73 624.19 386.46ZM610 387.83 610 379 617.85 379.9 616 384 621 383 621 386.21C617.267 386.107 613.545 386.655 610 387.83Z" fill="#000000"/></g></g></g></g></svg>