<svg viewBox="0 0 96 96" xmlns="http://www.w3.org/2000/svg" xmlns:xlink="http://www.w3.org/1999/xlink" id="Icons_Flammable" overflow="hidden"><path d="M90.55 80 51.47 12C50.3711 10.0836 47.9267 9.42084 46.0103 10.5197 45.3942 10.873 44.8833 11.3839 44.53 12L5.45 80C4.34543 81.9132 5.00093 84.3595 6.9141 85.4641 7.52097 85.8145 8.20924 85.9993 8.91 86L87.09 86C89.2991 85.9977 91.0882 84.205 91.0859 81.9959 91.0852 81.2951 90.9004 80.6069 90.55 80ZM60.73 63.8C58.5781 69.0935 53.4441 72.5649 47.73 72.59 47.73 72.59 47.73 69.31 44.2 64.96 40.67 60.61 42.27 54.33 42.27 54.33 38.0823 58.3251 36.9149 64.5488 39.37 69.79 36.18 68.05 31.49 60.79 34.63 53.13 35.26 51.58 37.34 48.92 40.43 46.36 43.52 43.8 48.93 37.67 45.43 31 53.21 34.38 56.64 44.19 51.95 50.47 49.81 53.46 51 56.94 54 58 56.4901 58.9094 59.2459 57.6279 60.1553 55.1378 60.4708 54.2738 60.5314 53.3374 60.33 52.44 62.57 55.44 62.42 60.57 60.73 63.8Z" fill="#FFFFFF"/></svg>