<svg width="87" height="88" xmlns="http://www.w3.org/2000/svg" xmlns:xlink="http://www.w3.org/1999/xlink" overflow="hidden"><defs><clipPath id="clip0"><path d="M368 387 455 387 455 475 368 475Z" fill-rule="evenodd" clip-rule="evenodd"/></clipPath></defs><g clip-path="url(#clip0)" transform="translate(-368 -387)"><path d="M411.001 393C390.014 392.999 373.001 410.012 373 430.999 372.999 451.986 390.012 468.999 410.999 469 431.986 469.001 448.999 451.988 449 431.001 449 431 449 430.998 449 430.997 449.008 410.02 432.01 393.008 411.033 393 411.022 393 411.012 393 411.001 393ZM414.933 451.507C414.51 452.496 413.721 453.285 412.732 453.708 412.223 453.924 411.675 454.035 411.122 454.032 410.018 454.034 408.958 453.598 408.175 452.818 407.798 452.44 407.496 451.994 407.286 451.503 407.068 450.993 406.958 450.445 406.961 449.891 406.958 448.786 407.395 447.726 408.175 446.943 409.793 445.321 412.42 445.318 414.042 446.936 414.044 446.938 414.047 446.941 414.05 446.943L414.05 446.943C414.429 447.324 414.731 447.775 414.939 448.271 415.156 448.784 415.266 449.335 415.264 449.891 415.266 450.446 415.153 450.995 414.933 451.505ZM418.466 433.938C415.733 435.586 414.045 438.528 414.003 441.72L407.999 441.72C408.035 436.463 410.785 431.598 415.269 428.856 419.029 426.499 420.166 421.541 417.809 417.781 415.453 414.022 410.494 412.885 406.735 415.241 404.39 416.711 402.966 419.285 402.968 422.052L396.965 422.052C396.962 414.3 403.244 408.013 410.997 408.01 418.749 408.007 425.037 414.289 425.039 422.042 425.041 426.873 422.558 431.366 418.466 433.936Z" fill-rule="evenodd"/></g></svg>