<svg width="98" height="98" xmlns="http://www.w3.org/2000/svg" xmlns:xlink="http://www.w3.org/1999/xlink" overflow="hidden"><defs><clipPath id="clip0"><path d="M591 311 689 311 689 409 591 409Z" fill-rule="evenodd" clip-rule="evenodd"/></clipPath><clipPath id="clip1"><path d="M592 312 688 312 688 408 592 408Z" fill-rule="evenodd" clip-rule="evenodd"/></clipPath><clipPath id="clip2"><path d="M592 312 688 312 688 408 592 408Z" fill-rule="evenodd" clip-rule="evenodd"/></clipPath><clipPath id="clip3"><path d="M592 312 688 312 688 408 592 408Z" fill-rule="evenodd" clip-rule="evenodd"/></clipPath></defs><g clip-path="url(#clip0)" transform="translate(-591 -311)"><g clip-path="url(#clip1)"><g clip-path="url(#clip2)"><g clip-path="url(#clip3)"><path d="M604 338C601.8 338 600 339.8 600 342L600 390C600 392.2 601.8 394 604 394L612 394 612 338 604 338Z" fill="#000000"/><path d="M676 338 668 338 668 394 676 394C678.2 394 680 392.2 680 390L680 342C680 339.8 678.2 338 676 338Z" fill="#000000"/><path d="M653 338 653 333C653 329.1 649.9 326 646 326L640 326 634 326C630.1 326 627 329.1 627 333L627 338 616 338 616 394 664 394 664 338 653 338ZM647 338 633 338 633 333C633 332.4 633.4 332 634 332L640 332 646 332C646.6 332 647 332.4 647 333L647 338Z" fill="#000000"/></g></g></g></g></svg>