<svg width="87" height="88" xmlns="http://www.w3.org/2000/svg" xmlns:xlink="http://www.w3.org/1999/xlink" overflow="hidden"><defs><clipPath id="clip0"><path d="M368 387 455 387 455 475 368 475Z" fill-rule="evenodd" clip-rule="evenodd"/></clipPath></defs><g clip-path="url(#clip0)" transform="translate(-368 -387)"><path d="M411 393C390.013 393 373 410.013 373 431 373 451.987 390.013 469 411 469 431.987 469 449 451.987 449 431 449 430.999 449 430.998 449 430.997 449.007 410.019 432.007 393.007 411.029 393 411.019 393 411.01 393 411 393ZM420.205 432.815C414.669 438.341 409.099 443.917 403.496 449.541 398.735 444.757 393.962 439.985 389.178 435.223L393.962 430.44 403.496 439.974C408.124 435.279 412.727 430.617 417.303 425.987 421.877 421.359 424.407 418.874 429.151 414.29 429.284 414.157 429.427 414.025 429.582 413.89 429.733 413.762 429.867 413.617 429.983 413.457L434.833 418.241C429.199 423.844 425.741 427.286 420.204 432.812Z" fill-rule="evenodd"/></g></svg>