<svg width="118" height="118" xmlns="http://www.w3.org/2000/svg" xmlns:xlink="http://www.w3.org/1999/xlink" overflow="hidden"><defs><clipPath id="clip0"><path d="M847 478 965 478 965 596 847 596Z" fill-rule="evenodd" clip-rule="evenodd"/></clipPath></defs><g clip-path="url(#clip0)" transform="translate(-847 -478)"><path d="M906 531C909.6 531 912 533.6 912 537.5 912 541.4 909.6 544 906 544 902.4 544 900 541.4 900 537.5 900 533.6 902.4 531 906 531Z" fill-rule="evenodd"/><path d="M906 494C929.748 494 949 513.476 949 537.5 949 561.524 929.748 581 906 581 882.252 581 863 561.524 863 537.5 863 513.476 882.252 494 906 494ZM930.555 512.66 895.542 527.472 881.219 562.569 916.232 548.079 930.555 512.66Z" fill-rule="evenodd"/></g></svg>