<svg width="98" height="98" xmlns="http://www.w3.org/2000/svg" xmlns:xlink="http://www.w3.org/1999/xlink" overflow="hidden"><defs><clipPath id="clip0"><path d="M591 311 689 311 689 409 591 409Z" fill-rule="evenodd" clip-rule="evenodd"/></clipPath><clipPath id="clip1"><path d="M592 312 688 312 688 408 592 408Z" fill-rule="evenodd" clip-rule="evenodd"/></clipPath><clipPath id="clip2"><path d="M592 312 688 312 688 408 592 408Z" fill-rule="evenodd" clip-rule="evenodd"/></clipPath><clipPath id="clip3"><path d="M592 312 688 312 688 408 592 408Z" fill-rule="evenodd" clip-rule="evenodd"/></clipPath></defs><g clip-path="url(#clip0)" transform="translate(-591 -311)"><g clip-path="url(#clip1)"><g clip-path="url(#clip2)"><g clip-path="url(#clip3)"><path d="M622.38 382.62 599.76 360 621.88 337.88 626.12 342.12 608.24 360 626.62 378.38 622.38 382.62Z" fill="#000000"/><path d="M657.12 382.62 652.88 378.38 671.26 360 653.38 342.12 657.62 337.88 679.74 360 657.12 382.62Z" fill="#000000"/><path d="M645 360C645 362.761 642.761 365 640 365 637.239 365 635 362.761 635 360 635 357.239 637.239 355 640 355 642.761 355 645 357.239 645 360Z" fill="#000000"/><path d="M629 360C629 362.761 626.761 365 624 365 621.239 365 619 362.761 619 360 619 357.239 621.239 355 624 355 626.761 355 629 357.239 629 360Z" fill="#000000"/><path d="M661 360C661 362.761 658.761 365 656 365 653.239 365 651 362.761 651 360 651 357.239 653.239 355 656 355 658.761 355 661 357.239 661 360Z" fill="#000000"/></g></g></g></g></svg>