<svg width="122" height="123" xmlns="http://www.w3.org/2000/svg" xmlns:xlink="http://www.w3.org/1999/xlink" overflow="hidden"><defs><clipPath id="clip0"><path d="M633 158 755 158 755 281 633 281Z" fill-rule="evenodd" clip-rule="evenodd"/></clipPath></defs><g clip-path="url(#clip0)" transform="translate(-633 -158)"><path d="M734 246.286 705.124 217.443 730.569 208.286C731.876 207.837 732.571 206.415 732.122 205.109 731.871 204.38 731.299 203.808 730.569 203.557L657.249 179.129C656.986 179.042 656.711 178.999 656.434 179L656.434 179C655.061 179.029 653.971 180.166 654.001 181.538 654.006 181.793 654.05 182.045 654.133 182.286L678.52 255.629C678.981 256.93 680.41 257.613 681.713 257.153 682.425 256.901 682.986 256.341 683.238 255.629L692.415 230.172 721.263 259Z" fill="#000000" fill-rule="evenodd"/></g></svg>