<svg width="114" height="114" xmlns="http://www.w3.org/2000/svg" xmlns:xlink="http://www.w3.org/1999/xlink" overflow="hidden"><defs><clipPath id="clip0"><path d="M355 414 469 414 469 528 355 528Z" fill-rule="evenodd" clip-rule="evenodd"/></clipPath></defs><g clip-path="url(#clip0)" transform="translate(-355 -414)"><path d="M366 470.5C366 445.371 386.371 425 411.5 425 436.629 425 457 445.371 457 470.5 457 495.629 436.629 516 411.5 516 386.371 516 366 495.629 366 470.5ZM382.676 470.5C382.676 486.419 395.581 499.324 411.5 499.324 427.419 499.324 440.324 486.419 440.324 470.5 440.324 454.581 427.419 441.676 411.5 441.676 395.581 441.676 382.676 454.581 382.676 470.5Z" fill="#9A2E2E" fill-rule="evenodd"/></g></svg>