<svg width="97" height="97" xmlns="http://www.w3.org/2000/svg" xmlns:xlink="http://www.w3.org/1999/xlink" overflow="hidden"><defs><clipPath id="clip0"><path d="M123 322 220 322 220 419 123 419Z" fill-rule="evenodd" clip-rule="evenodd"/></clipPath></defs><g clip-path="url(#clip0)" transform="translate(-123 -322)"><path d="M157.436 339.991 208.925 339.991 207.106 348.275 192.18 348.275 185.093 379.717C184.174 383.817 183.713 386.912 183.713 389.005 183.713 390.678 183.985 391.892 184.529 392.645 185.072 393.398 185.93 393.775 187.1 393.775 189.609 393.775 192.557 391.766 195.943 387.75L199.581 391.139C196.403 394.611 193.508 397.121 190.894 398.67 188.281 400.217 185.49 400.991 182.522 400.991 179.678 400.991 177.442 400.018 175.811 398.073 174.181 396.127 173.366 393.565 173.366 390.386 173.366 387.582 173.951 383.524 175.122 378.211L176.502 371.872C177.212 368.525 178.225 364.487 179.543 359.76 180.859 355.032 181.999 351.392 182.961 348.84L182.648 348.275 164.21 348.275 156.495 383.984C155.868 386.787 155.136 389.81 154.3 393.053 153.464 396.295 152.816 398.606 152.356 399.987L139.06 399.987 139.687 396.912C144.12 392.519 148.217 382.227 151.98 366.036L156.119 348.275 154.112 348.275C151.144 348.275 148.635 348.777 146.586 349.781 144.538 350.785 142.3 352.794 139.876 355.806L135.925 352.48C138.099 349.844 139.876 347.836 141.256 346.456 142.636 345.075 144.089 343.903 145.614 342.941 147.14 341.978 148.855 341.246 150.756 340.744 152.659 340.242 154.885 339.991 157.436 339.991Z" fill-rule="evenodd"/></g></svg>