<svg width="116" height="115" xmlns="http://www.w3.org/2000/svg" xmlns:xlink="http://www.w3.org/1999/xlink" overflow="hidden"><defs><clipPath id="clip0"><path d="M448 504 564 504 564 619 448 619Z" fill-rule="evenodd" clip-rule="evenodd"/></clipPath><clipPath id="clip1"><path d="M456 511 556 511 556 611 456 611Z" fill-rule="evenodd" clip-rule="evenodd"/></clipPath><clipPath id="clip2"><path d="M456 511 556 511 556 611 456 611Z" fill-rule="evenodd" clip-rule="evenodd"/></clipPath><clipPath id="clip3"><path d="M456 511 556 511 556 611 456 611Z" fill-rule="evenodd" clip-rule="evenodd"/></clipPath></defs><g clip-path="url(#clip0)" transform="translate(-448 -504)"><g clip-path="url(#clip1)"><g clip-path="url(#clip2)"><g clip-path="url(#clip3)"><path d="M17.7083 58.3333C17.3958 48.6458 17.7083 39.7917 22.9167 31.25 28.75 21.6667 38.0208 14.5833 49.2708 13.2292 60.5208 11.875 71.875 14.7917 81.1458 21.25 89.0625 27.0833 95.8333 37.6042 95.8333 47.7083 94.5833 40 90.2083 33.125 83.6458 28.75 77.0833 24.4792 69.0625 23.0208 61.4583 25 54.2708 26.6667 48.3333 32.1875 44.375 38.3333 40.4167 44.4792 40.625 51.25 40.625 58.3333L54.1667 58.3333 29.1667 83.3333C29.1667 83.3333 8.4375 62.6042 4.16667 58.3333L17.7083 58.3333Z" transform="matrix(-1 -8.74228e-08 -8.74228e-08 1 556 511)"/></g></g></g></g></svg>