<svg width="98" height="98" xmlns="http://www.w3.org/2000/svg" xmlns:xlink="http://www.w3.org/1999/xlink" overflow="hidden"><defs><clipPath id="clip0"><path d="M591 311 689 311 689 409 591 409Z" fill-rule="evenodd" clip-rule="evenodd"/></clipPath><clipPath id="clip1"><path d="M592 312 688 312 688 408 592 408Z" fill-rule="evenodd" clip-rule="evenodd"/></clipPath><clipPath id="clip2"><path d="M592 312 688 312 688 408 592 408Z" fill-rule="evenodd" clip-rule="evenodd"/></clipPath><clipPath id="clip3"><path d="M592 312 688 312 688 408 592 408Z" fill-rule="evenodd" clip-rule="evenodd"/></clipPath></defs><g clip-path="url(#clip0)" transform="translate(-591 -311)"><g clip-path="url(#clip1)"><g clip-path="url(#clip2)"><g clip-path="url(#clip3)"><path d="M612.9 369.6 632.1 350.4 621.4 350.4C624.9 343.6 632 338.9 640.2 338.9 645.5 338.9 650.4 340.9 654.1 344.2L673.6 344.2C667.7 331.6 654.9 323 640.2 323 623.1 323 608.7 334.6 604.5 350.4L593.7 350.4 612.9 369.6Z" fill="#000000"/><path d="M686.6 369.6 667.4 350.4 648.2 369.6 659 369.6C655.5 376.4 648.4 381.1 640.2 381.1 634.9 381.1 630 379.1 626.3 375.8L606.7 375.8C612.7 388.4 625.4 397 640.2 397 657.3 397 671.7 385.4 675.9 369.6L686.6 369.6Z" fill="#000000"/></g></g></g></g></svg>