<svg width="98" height="98" xmlns="http://www.w3.org/2000/svg" xmlns:xlink="http://www.w3.org/1999/xlink" overflow="hidden"><defs><clipPath id="clip0"><path d="M591 311 689 311 689 409 591 409Z" fill-rule="evenodd" clip-rule="evenodd"/></clipPath><clipPath id="clip1"><path d="M592 312 688 312 688 408 592 408Z" fill-rule="evenodd" clip-rule="evenodd"/></clipPath><clipPath id="clip2"><path d="M592 312 688 312 688 408 592 408Z" fill-rule="evenodd" clip-rule="evenodd"/></clipPath><clipPath id="clip3"><path d="M592 312 688 312 688 408 592 408Z" fill-rule="evenodd" clip-rule="evenodd"/></clipPath></defs><g clip-path="url(#clip0)" transform="translate(-591 -311)"><g clip-path="url(#clip1)"><g clip-path="url(#clip2)"><g clip-path="url(#clip3)"><path d="M621 359C630.532 359 638 354.607 638 349 638 343.393 630.532 339 621 339 611.468 339 604 343.393 604 349 604 354.607 611.468 359 621 359ZM621 343C628.661 343 634 346.162 634 349 634 351.838 628.661 355 621 355 613.339 355 608 351.838 608 349 608 346.162 613.339 343 621 343Z"/><path d="M630 349C630 351.209 625.971 353 621 353 616.029 353 612 351.209 612 349 612 346.791 616.029 345 621 345 625.971 345 630 346.791 630 349Z"/><path d="M681.662 351.788C670.619 346.815 659.194 346.888 647.651 351.944 647.881 350.979 647.998 349.992 648 349 648 338.907 636.141 331 621 331 605.859 331 594 338.907 594 349L594 369.694C594 380.52 606.369 389 622.159 389 631.659 389 641.521 383.789 646.818 380.989 657.875 375.145 668.77 374.562 679.198 379.258L686 382.323 686 353.742ZM653 356.264C654.312 355.801 655.647 355.408 657 355.086L657 368 653 368ZM603 363 603.848 363C604.869 363.551 605.921 364.042 607 364.468L607 370 603 370ZM623 366.948C624.367 366.881 625.7 366.754 627 366.567L627 373 623 373ZM633 365.185C634.369 364.744 635.705 364.21 637 363.585L637 376 633 376ZM643 360.829C644.435 360.194 645.728 359.565 646.818 358.989 646.879 358.957 646.939 358.93 647 358.898L647 366 643 366ZM617 378 613 378 613 366.225C614.323 366.488 615.658 366.683 617 366.81ZM663 361 663 354.192C664.332 354.111 665.668 354.111 667 354.192L667 361ZM621 337C632.383 337 642 342.5 642 349 642 355.5 632.383 361 621 361 609.617 361 600 355.505 600 349 600 342.495 609.617 337 621 337ZM680 373.078C677.973 372.26 675.885 371.602 673.755 371.109 672.661 368.702 672.065 366.098 672 363.455 672.039 360.629 672.871 357.871 674.4 355.494 676.039 355.97 677.643 356.56 679.2 357.258L680 357.619Z"/></g></g></g></g></svg>