<svg width="98" height="98" xmlns="http://www.w3.org/2000/svg" xmlns:xlink="http://www.w3.org/1999/xlink" overflow="hidden"><defs><clipPath id="clip0"><path d="M591 311 689 311 689 409 591 409Z" fill-rule="evenodd" clip-rule="evenodd"/></clipPath><clipPath id="clip1"><path d="M592 312 688 312 688 408 592 408Z" fill-rule="evenodd" clip-rule="evenodd"/></clipPath><clipPath id="clip2"><path d="M592 312 688 312 688 408 592 408Z" fill-rule="evenodd" clip-rule="evenodd"/></clipPath><clipPath id="clip3"><path d="M592 312 688 312 688 408 592 408Z" fill-rule="evenodd" clip-rule="evenodd"/></clipPath></defs><g clip-path="url(#clip0)" transform="translate(-591 -311)"><g clip-path="url(#clip1)"><g clip-path="url(#clip2)"><g clip-path="url(#clip3)"><path d="M648 334C648 338.418 644.418 342 640 342 635.582 342 632 338.418 632 334 632 329.582 635.582 326 640 326 644.418 326 648 329.582 648 334Z" fill="#000000"/><path d="M648 386C648 390.418 644.418 394 640 394 635.582 394 632 390.418 632 386 632 381.582 635.582 378 640 378 644.418 378 648 381.582 648 386Z" fill="#000000"/><path d="M674 334C674 338.418 670.418 342 666 342 661.582 342 658 338.418 658 334 658 329.582 661.582 326 666 326 670.418 326 674 329.582 674 334Z" fill="#000000"/><path d="M665 346 665 358 642 358 642 345.82C640.677 346.06 639.323 346.06 638 345.82L638 358 615 358 615 346C614.67 346 614.34 346 614 346 612.988 345.994 611.98 345.863 611 345.61L611 362 638 362 638 374.18C639.323 373.94 640.677 373.94 642 374.18L642 362 669 362 669 345.61C668.02 345.863 667.012 345.994 666 346 665.66 346 665.33 346 665 346Z" fill="#000000"/><path d="M622 334C622 338.418 618.418 342 614 342 609.582 342 606 338.418 606 334 606 329.582 609.582 326 614 326 618.418 326 622 329.582 622 334Z" fill="#000000"/></g></g></g></g></svg>