<svg width="97" height="98" xmlns="http://www.w3.org/2000/svg" xmlns:xlink="http://www.w3.org/1999/xlink" overflow="hidden"><defs><clipPath id="clip0"><path d="M424 241 521 241 521 339 424 339Z" fill-rule="evenodd" clip-rule="evenodd"/></clipPath></defs><g clip-path="url(#clip0)" transform="translate(-424 -241)"><path d="M472.941 304.118C465.188 304.118 458.844 297.765 458.844 290 458.844 282.235 465.188 275.882 472.941 275.882 480.695 275.882 487.038 282.235 487.038 290 487.038 297.765 480.695 304.118 472.941 304.118ZM504.659 281.177C503.955 278.588 502.897 276.118 501.605 273.882L504.542 265.059 497.846 258.353 489.035 261.294C486.686 260 484.219 258.941 481.634 258.235L477.64 250 468.242 250 464.131 258.235C461.546 258.941 459.079 260 456.847 261.294L448.037 258.353 441.341 265.059 444.278 273.882C442.985 276.235 441.928 278.706 441.223 281.294L433 285.294 433 294.706 441.223 298.824C441.928 301.412 442.985 303.882 444.278 306.118L441.341 314.941 448.037 321.647 456.847 318.706C459.197 320 461.664 321.059 464.248 321.765L468.36 330 477.758 330 481.869 321.765C484.454 321.059 486.921 320 489.153 318.706L497.963 321.647 504.659 314.941 501.723 306.118C503.015 303.765 504.072 301.294 504.777 298.706L513 294.588 513 285.177 504.659 281.177Z" fill-rule="evenodd"/></g></svg>