<svg width="116" height="115" xmlns="http://www.w3.org/2000/svg" xmlns:xlink="http://www.w3.org/1999/xlink" overflow="hidden"><defs><clipPath id="clip0"><path d="M448 504 564 504 564 619 448 619Z" fill-rule="evenodd" clip-rule="evenodd"/></clipPath><clipPath id="clip1"><path d="M449 504 563 504 563 618 449 618Z" fill-rule="evenodd" clip-rule="evenodd"/></clipPath><clipPath id="clip2"><path d="M449 504 563 504 563 618 449 618Z" fill-rule="evenodd" clip-rule="evenodd"/></clipPath><clipPath id="clip3"><path d="M449 504 563 504 563 618 449 618Z" fill-rule="evenodd" clip-rule="evenodd"/></clipPath></defs><g clip-path="url(#clip0)" transform="translate(-448 -504)"><g clip-path="url(#clip1)"><g clip-path="url(#clip2)"><g clip-path="url(#clip3)"><path d="M109.25 57C109.606 57 80.75 28.5 80.75 28.5L80.75 46.3125C61.8687 54.8625 4.75 46.3125 4.75 46.3125 4.75 46.3125 45.2437 77.3063 80.75 73.625L80.75 85.5 109.25 57Z" transform="matrix(-1 -8.74228e-08 -8.74228e-08 1 563 504)"/></g></g></g></g></svg>