<svg width="98" height="98" xmlns="http://www.w3.org/2000/svg" xmlns:xlink="http://www.w3.org/1999/xlink" overflow="hidden"><defs><clipPath id="clip0"><path d="M591 311 689 311 689 409 591 409Z" fill-rule="evenodd" clip-rule="evenodd"/></clipPath><clipPath id="clip1"><path d="M592 312 688 312 688 408 592 408Z" fill-rule="evenodd" clip-rule="evenodd"/></clipPath><clipPath id="clip2"><path d="M592 312 688 312 688 408 592 408Z" fill-rule="evenodd" clip-rule="evenodd"/></clipPath><clipPath id="clip3"><path d="M592 312 688 312 688 408 592 408Z" fill-rule="evenodd" clip-rule="evenodd"/></clipPath></defs><g clip-path="url(#clip0)" transform="translate(-591 -311)"><g clip-path="url(#clip1)"><g clip-path="url(#clip2)"><g clip-path="url(#clip3)"><path d="M664 383.6 650.31 361.78C650.065 361.38 649.629 361.137 649.16 361.14 648.689 361.14 648.251 361.382 648 361.78L644 368.2 652.58 382.08C653.306 383.178 653.462 384.557 653 385.79L662.7 385.79C663.494 385.83 664.17 385.218 664.21 384.424 664.224 384.134 664.151 383.847 664 383.6Z" fill="#000000"/><path d="M649.1 383.73 627.35 348.34C627.071 347.979 626.636 347.775 626.18 347.79L626 347.79 625.82 347.79C625.364 347.775 624.929 347.979 624.65 348.34L602.9 383.73C602.592 384.161 602.549 384.728 602.79 385.2 603.033 385.628 603.513 385.862 604 385.79L648 385.79C648.487 385.862 648.967 385.628 649.21 385.2 649.451 384.728 649.408 384.161 649.1 383.73ZM629.64 364.92 626.18 368 622.72 364.92 617 368.38 626 353.79 634.76 368Z" fill="#000000"/><path d="M616 350C616 351.657 614.657 353 613 353 611.343 353 610 351.657 610 350 610 348.343 611.343 347 613 347 614.657 347 616 348.343 616 350Z" fill="#000000"/><path d="M685 325 605 325 605 336 594 336 594 397.79 674 397.79 674 386.79 685 386.79ZM668 392 600 392 600 341.79 668 341.79ZM679 381 674 381 674 336 611 336 611 331 679 331Z" fill="#000000"/></g></g></g></g></svg>