<svg width="114" height="114" xmlns="http://www.w3.org/2000/svg" xmlns:xlink="http://www.w3.org/1999/xlink" overflow="hidden"><defs><clipPath id="clip0"><path d="M355 414 469 414 469 528 355 528Z" fill-rule="evenodd" clip-rule="evenodd"/></clipPath></defs><g clip-path="url(#clip0)" transform="translate(-355 -414)"><path d="M411.503 443C391.137 443 373.804 460.81 367.196 468.558 365.53 470.571 365.614 473.519 367.391 475.433 374.129 482.482 391.332 498 411.503 498 431.673 498 448.854 482.482 455.592 475.455 457.392 473.541 457.476 470.571 455.787 468.558 449.201 460.81 431.847 443 411.503 443ZM398.741 454.611C390.034 461.688 388.671 474.536 395.696 483.307 396.885 484.792 398.275 486.101 399.825 487.197 390.897 483.778 382.779 478.514 375.992 471.744 382.383 464.582 390.114 458.759 398.741 454.611ZM423.18 487.197C432.339 480.702 434.537 467.958 428.09 458.733 427.01 457.187 425.722 455.8 424.264 454.611 432.889 458.763 440.619 464.585 447.013 471.744 440.222 478.509 432.105 483.772 423.18 487.197Z" fill="#000000" fill-rule="evenodd"/></g></svg>