<?xml version="1.0" encoding="utf-8"?>
<!-- Generator: Adobe Illustrator 22.0.0, SVG Export Plug-In . SVG Version: 6.00 Build 0)  -->
<svg version="1.1" id="图层_1" xmlns="http://www.w3.org/2000/svg" xmlns:xlink="http://www.w3.org/1999/xlink" x="0px" y="0px"
	 viewBox="0 0 34 34" style="enable-background:new 0 0 34 34;" xml:space="preserve">
<style type="text/css">
	.st0{fill-rule:evenodd;clip-rule:evenodd;fill:#9E9E9F;}
	.st1{fill-rule:evenodd;clip-rule:evenodd;fill:#008BD5;}
	.st2{fill-rule:evenodd;clip-rule:evenodd;fill:#231815;}
	.st3{fill-rule:evenodd;clip-rule:evenodd;fill:#FFFFFF;}
</style>
<path class="st0" d="M5.3,31.7V2.7C5.3,2.3,5.5,2,5.9,2h23c0.3,0,0.6,0.3,0.6,0.6v29.1c0,0.3-0.3,0.6-0.6,0.6h-23
	C5.5,32.3,5.3,32.1,5.3,31.7z"/>
<path class="st1" d="M5.3,31.4V2.3c0-0.3,0.3-0.6,0.6-0.6h23c0.3,0,0.6,0.3,0.6,0.6v29.1c0,0.3-0.3,0.6-0.6,0.6h-23
	C5.5,32,5.3,31.7,5.3,31.4z"/>
<path class="st2" d="M5.3,2.3L5.3,2.3v29.1H5.2V2.3H5.3L5.3,2.3z M5.9,1.6L5.9,1.6L5.9,1.6l-0.1,0l0,0l0,0l0,0l0,0l0,0l0,0l0,0l0,0
	l0,0l0,0l0,0l0,0l0,0l0,0l0,0l0,0l0,0l0,0l0,0l0,0l0,0l0,0l0,0l0,0l0,0l0,0l0,0l0,0l0,0h0.2l0,0l0,0l0,0l0,0l0,0l0,0l0,0l0,0l0,0
	l0,0l0,0l0,0l0,0l0,0l0,0l0,0l0,0l0,0l0,0l0,0l0,0l0,0l0,0l0,0l0,0l0,0l0,0l0,0l0,0l0,0l0,0l0,0V1.6L5.9,1.6z M28.9,1.8L28.9,1.8
	h-23V1.6h23V1.8L28.9,1.8z M29.6,2.3L29.6,2.3L29.6,2.3l0-0.1l0,0l0,0l0,0l0,0l0,0l0,0l0,0l0,0l0,0l0,0l0,0l0,0l0,0l0,0l0,0l0,0l0,0
	l0,0l0,0l0,0l0,0l0,0l0,0l0,0l0,0l0,0l0,0l0,0l0,0v0.2l0,0l0,0l0,0l0,0l0,0l0,0l0,0l0,0l0,0l0,0l0,0l0,0l0,0l0,0l0,0l0,0l0,0l0,0
	l0,0l0,0l0,0l0,0l0,0l0,0l0,0l0,0l0,0l0,0l0,0l0,0l0,0l0,0H29.6L29.6,2.3z M29.4,31.4L29.4,31.4V2.3h0.2v29.1H29.4L29.4,31.4z
	 M28.9,32.1L28.9,32.1L28.9,32.1l0.1,0l0,0l0,0l0,0l0,0l0,0l0,0l0,0l0,0l0,0l0,0l0,0l0,0l0,0l0,0l0,0l0,0l0,0l0,0l0,0l0,0l0,0l0,0
	l0,0l0,0l0,0l0,0l0,0l0,0l0,0h-0.2l0,0l0,0l0,0l0,0l0,0l0,0l0,0l0,0l0,0l0,0l0,0l0,0l0,0l0,0l0,0l0,0l0,0l0,0l0,0l0,0l0,0l0,0l0,0
	l0,0l0,0l0,0l0,0l0,0l0,0l0,0l0,0h0V32.1L28.9,32.1z M5.9,31.9L5.9,31.9h23v0.2h-23V31.9L5.9,31.9z M5.2,31.4L5.2,31.4L5.2,31.4
	l0,0.1l0,0l0,0l0,0l0,0l0,0l0,0l0,0l0,0l0,0l0,0l0,0l0,0l0,0l0,0l0,0l0,0l0,0l0,0l0,0l0,0l0,0l0,0l0,0l0,0l0,0l0,0l0,0l0,0l0,0v-0.2
	h0l0,0l0,0l0,0l0,0l0,0l0,0l0,0l0,0l0,0l0,0l0,0l0,0l0,0l0,0l0,0l0,0l0,0l0,0l0,0l0,0l0,0l0,0l0,0l0,0l0,0l0,0l0,0l0,0l0,0l0,0l0,0
	H5.2z"/>
<path class="st3" d="M5.7,31V2.7c0-0.3,0.3-0.6,0.6-0.6h22.2c0.3,0,0.6,0.3,0.6,0.6V31c0,0.3-0.3,0.6-0.6,0.6H6.3
	C5.9,31.6,5.7,31.3,5.7,31z"/>
<path class="st1" d="M6.1,30.6V3.1c0-0.3,0.3-0.6,0.6-0.6h21.5c0.3,0,0.6,0.3,0.6,0.6v27.5c0,0.3-0.3,0.6-0.6,0.6H6.6
	C6.3,31.2,6.1,30.9,6.1,30.6z"/>
<path class="st3" d="M13.1,22.3V5h3.7c1.4,0,2.3,0.1,2.7,0.3C20.1,5.5,20.6,6.1,21,7c0.4,0.9,0.7,2,0.7,3.4c0,1.1-0.1,2-0.4,2.7
	c-0.3,0.7-0.6,1.3-1,1.7c-0.4,0.4-0.8,0.7-1.2,0.8c-0.5,0.2-1.3,0.2-2.4,0.2h-1.5v6.5H13.1z"/>
<path class="st1" d="M15.3,7.9v4.9h1.2c0.9,0,1.5-0.1,1.8-0.3c0.3-0.2,0.5-0.5,0.7-0.8c0.2-0.4,0.3-0.8,0.3-1.3
	c0-0.6-0.1-1.1-0.4-1.6c-0.2-0.4-0.5-0.7-0.9-0.8c-0.3-0.1-0.8-0.1-1.6-0.1H15.3z"/>
</svg>
