<?xml version="1.0" encoding="utf-8"?>
<!-- Generator: Adobe Illustrator 22.0.0, SVG Export Plug-In . SVG Version: 6.00 Build 0)  -->
<svg version="1.1" id="图层_1" xmlns="http://www.w3.org/2000/svg" xmlns:xlink="http://www.w3.org/1999/xlink" x="0px" y="0px"
	 viewBox="0 0 34 34" style="enable-background:new 0 0 34 34;" xml:space="preserve">
<style type="text/css">
	.st0{fill-rule:evenodd;clip-rule:evenodd;fill:#9E9E9F;}
	.st1{fill-rule:evenodd;clip-rule:evenodd;fill:#008BD5;}
	.st2{fill-rule:evenodd;clip-rule:evenodd;fill:#231815;}
	.st3{fill-rule:evenodd;clip-rule:evenodd;fill:#FFFFFF;}
</style>
<path class="st0" d="M5.4,31.7V2.7c0-0.3,0.3-0.6,0.6-0.6l23,0c0.3,0,0.6,0.3,0.6,0.6v29.1c0,0.3-0.3,0.6-0.6,0.6H6
	C5.6,32.4,5.4,32.1,5.4,31.7z"/>
<path class="st1" d="M5.4,31.4V2.3C5.4,2,5.6,1.7,6,1.7h23c0.3,0,0.6,0.3,0.6,0.6v29.1c0,0.3-0.3,0.6-0.6,0.6H6
	C5.6,32,5.4,31.7,5.4,31.4z"/>
<path class="st2" d="M5.4,2.3L5.4,2.3v29.1H5.3V2.3H5.4L5.4,2.3z M6,1.6L6,1.6L6,1.6l-0.1,0l0,0l0,0l0,0l0,0l0,0l0,0l0,0l0,0l0,0
	l0,0l0,0l0,0l0,0l0,0l0,0l0,0l0,0l0,0l0,0l0,0l0,0l0,0l0,0l0,0l0,0l0,0l0,0l0,0l0,0h0.2l0,0l0,0l0,0l0,0l0,0l0,0l0,0l0,0l0,0l0,0
	l0,0l0,0l0,0l0,0l0,0l0,0l0,0l0,0l0,0l0,0l0,0l0,0l0,0l0,0l0,0l0,0l0,0l0,0l0,0l0,0l0,0l0,0V1.6L6,1.6z M29,1.8L29,1.8H6V1.6h23V1.8
	L29,1.8z M29.7,2.3L29.7,2.3L29.7,2.3l0-0.1l0,0l0,0l0,0l0,0l0,0l0,0l0,0l0,0l0,0l0,0l0,0l0,0l0,0l0,0l0,0l0,0l0,0l0,0l0,0l0,0l0,0
	l0,0l0,0l0,0l0,0l0,0l0,0l0,0l0,0v0.2l0,0l0,0l0,0l0,0l0,0l0,0l0,0l0,0l0,0l0,0l0,0l0,0l0,0l0,0l0,0l0,0l0,0l0,0l0,0l0,0l0,0l0,0
	l0,0l0,0l0,0l0,0l0,0l0,0l0,0l0,0l0,0l0,0H29.7L29.7,2.3z M29.5,31.4L29.5,31.4V2.3h0.2v29.1H29.5L29.5,31.4z M29,32.1L29,32.1
	L29,32.1l0.1,0l0,0l0,0l0,0l0,0l0,0l0,0l0,0l0,0l0,0l0,0l0,0l0,0l0,0l0,0l0,0l0,0l0,0l0,0l0,0l0,0l0,0l0,0l0,0l0,0l0,0l0,0l0,0l0,0
	l0,0h-0.2l0,0l0,0l0,0l0,0l0,0l0,0l0,0l0,0l0,0l0,0l0,0l0,0l0,0l0,0l0,0l0,0l0,0l0,0l0,0l0,0l0,0l0,0l0,0l0,0l0,0l0,0l0,0l0,0l0,0
	l0,0l0,0l0,0V32.1L29,32.1z M6,31.9L6,31.9h23v0.2H6V31.9L6,31.9z M5.3,31.4L5.3,31.4L5.3,31.4l0,0.1l0,0l0,0l0,0l0,0l0,0l0,0l0,0
	l0,0l0,0l0,0l0,0l0,0l0,0l0,0l0,0l0,0l0,0l0,0l0,0l0,0l0,0l0,0l0,0l0,0l0,0l0,0l0,0l0,0l0,0v-0.2l0,0l0,0l0,0l0,0l0,0l0,0l0,0l0,0
	l0,0l0,0l0,0l0,0l0,0l0,0l0,0l0,0l0,0l0,0l0,0l0,0l0,0l0,0l0,0l0,0l0,0l0,0l0,0l0,0l0,0l0,0l0,0l0,0H5.3z"/>
<path class="st3" d="M5.8,31V2.7c0-0.3,0.3-0.6,0.6-0.6h22.2c0.3,0,0.6,0.3,0.6,0.6V31c0,0.3-0.3,0.6-0.6,0.6l-22.2,0
	C6,31.6,5.8,31.3,5.8,31z"/>
<path class="st1" d="M6.2,30.6V3.1c0-0.3,0.3-0.6,0.6-0.6h21.5c0.3,0,0.6,0.3,0.6,0.6v27.5c0,0.3-0.3,0.6-0.6,0.6H6.7
	C6.4,31.2,6.2,30.9,6.2,30.6z"/>
<path class="st3" d="M11.1,18.6C11,18,11,17.4,11,16.8c0-0.9,0.2-1.5,0.6-1.7l0,0c-0.4,0-1.3-0.1-1.3-0.3c0-0.2,0-0.3,0.2-0.5
	c0.2-0.1,0.9-0.2,1.1-0.2c0.2,0,0.2,0.2,0.1,0.5l0.2,0c0.3-0.9,0.8-1.8,1.2-2.5c0.1-0.2,0.3-0.3,0.5-0.4c1.1-0.1,2.5-0.2,3.8-0.2
	c1.4,0,2.7,0,3.8,0.2c0.2,0,0.4,0.2,0.5,0.4c0.4,0.7,0.9,1.6,1.2,2.5l0.2,0c-0.1-0.4-0.1-0.5,0.1-0.5c0.1,0,0.9,0.1,1.1,0.2
	c0.3,0.2,0.2,0.4,0.2,0.5c0,0.2-0.8,0.2-1.3,0.3l0,0c0.5,0.2,0.6,0.9,0.6,1.7c0,0.6-0.1,1.2-0.2,1.8l0,3.2c0,0.1-0.1,0.2-0.2,0.2
	h-1.2c-0.1,0-0.2-0.1-0.2-0.2V21h-9.4v0.8c0,0.1-0.1,0.2-0.2,0.2h-1.2c-0.1,0-0.2-0.1-0.2-0.2L11.1,18.6z"/>
<path class="st1" d="M21.9,13c0.2,0.5,0.4,0.9,0.6,1.4c0.1,0.2,0.2,0.5,0.3,0.7c-1.5-0.1-3-0.2-4.5-0.2c-2,0-4,0-5.9,0.2
	c0.2-0.6,0.5-1.3,0.7-1.9c0.1-0.2,0.2-0.5,0.3-0.7c1.3-0.1,2.6-0.1,3.9-0.2c1.5,0,3,0,4.5,0.2C21.7,12.7,21.8,12.9,21.9,13L21.9,13
	L21.9,13z M20.8,17.8c0.1,0,0.8,0,1.1-0.1c0.2,0,0.4-0.1,0.4-0.1c0.1-0.1,0.5-0.1,0.9-0.1c0-0.2,0-0.4,0-0.6c0-0.2-0.2-0.2-0.4-0.2
	c-0.3,0-1.5,0.1-1.7,0.1c-0.1,0-0.3,0.1-0.3,0.2c-0.1,0.2-0.1,0.4-0.2,0.6C20.5,17.7,20.5,17.8,20.8,17.8L20.8,17.8L20.8,17.8z
	 M14.2,17.8c-0.1,0-0.8,0-1.1-0.1c-0.2,0-0.4-0.1-0.4-0.1c-0.1-0.1-0.5-0.1-0.9-0.1c0-0.2,0-0.4,0-0.6c0-0.2,0.2-0.2,0.4-0.2
	c0.3,0,1.5,0.1,1.7,0.1c0.1,0,0.3,0.1,0.3,0.2c0.1,0.2,0.1,0.4,0.2,0.6C14.4,17.7,14.5,17.8,14.2,17.8L14.2,17.8z M15.2,18.2h4.6
	c0.1,0,0.2,0.1,0.2,0.2v0.5c0,0.1-0.1,0.2-0.2,0.2l-4.6,0c-0.1,0-0.2-0.1-0.2-0.2v-0.5C15,18.3,15.1,18.2,15.2,18.2z"/>
</svg>
