<?xml version="1.0" encoding="utf-8"?>
<!-- Generator: Adobe Illustrator 22.0.0, SVG Export Plug-In . SVG Version: 6.00 Build 0)  -->
<svg version="1.1" id="图层_1" xmlns="http://www.w3.org/2000/svg" xmlns:xlink="http://www.w3.org/1999/xlink" x="0px" y="0px"
	 viewBox="0 0 34 34" style="enable-background:new 0 0 34 34;" xml:space="preserve">
<style type="text/css">
	.st0{fill-rule:evenodd;clip-rule:evenodd;fill:#9E9E9F;}
	.st1{fill-rule:evenodd;clip-rule:evenodd;fill:#FFFFFF;}
	.st2{fill-rule:evenodd;clip-rule:evenodd;fill:#231815;}
	.st3{fill-rule:evenodd;clip-rule:evenodd;fill:#E50012;}
	.st4{fill-rule:evenodd;clip-rule:evenodd;fill:#008BD5;}
</style>
<path class="st0" d="M17,32.7c8.4,0,15.3-6.9,15.3-15.3c0-8.4-6.9-15.3-15.3-15.3C8.6,2.1,1.7,8.9,1.7,17.4
	C1.7,25.8,8.6,32.7,17,32.7z"/>
<path class="st1" d="M17,1.8c8.5,0,15.3,6.9,15.3,15.3c0,8.5-6.9,15.3-15.3,15.3c-8.5,0-15.3-6.9-15.3-15.3S8.5,1.8,17,1.8z"/>
<path class="st2" d="M32.4,17.1h-0.2l0-0.8l-0.1-0.8l-0.1-0.8L31.9,14l-0.2-0.7l-0.2-0.7l-0.2-0.7L31,11.2l-0.3-0.7l-0.3-0.7L30,9.2
	l-0.4-0.6L29.2,8l-0.5-0.6l-0.5-0.6l-0.5-0.5l-0.5-0.5l-0.6-0.5l-0.6-0.5l-0.6-0.4l-0.6-0.4l-0.6-0.4l-0.7-0.3l-0.7-0.3l-0.7-0.3
	l-0.7-0.2l-0.7-0.2l-0.7-0.2L19.3,2l-0.8-0.1l-0.8-0.1l-0.8,0V1.7l0.8,0l0.8,0.1l0.8,0.1L20.1,2l0.7,0.2l0.7,0.2l0.7,0.2L23,2.9
	l0.7,0.3l0.7,0.3L25,3.9l0.6,0.4l0.6,0.4l0.6,0.5l0.6,0.5l0.5,0.5l0.5,0.5l0.5,0.6l0.5,0.6l0.4,0.6l0.4,0.6l0.4,0.6l0.3,0.7l0.3,0.7
	l0.3,0.7l0.2,0.7l0.2,0.7l0.2,0.7l0.1,0.8l0.1,0.8l0.1,0.8L32.4,17.1L32.4,17.1z M17,32.5l0.8,0l0.8-0.1l0.8-0.1l0.8-0.1l0.7-0.2
	l0.7-0.2l0.7-0.2l0.7-0.3l0.7-0.3l0.7-0.3l0.6-0.4l0.6-0.4l0.6-0.4l0.6-0.5l0.6-0.5l0.5-0.5l0.5-0.5l0.5-0.6l0.5-0.6l0.4-0.6
	l0.4-0.6l0.4-0.6l0.3-0.7l0.3-0.7l0.3-0.7l0.2-0.7l0.2-0.7l0.2-0.7l0.1-0.8l0.1-0.8l0.1-0.8l0-0.8h-0.2l0,0.8l-0.1,0.8l-0.1,0.8
	l-0.1,0.7l-0.2,0.7l-0.2,0.7l-0.2,0.7L31,23l-0.3,0.7l-0.3,0.7L30,25l-0.4,0.6l-0.4,0.6l-0.5,0.6l-0.5,0.6l-0.5,0.5l-0.5,0.5
	l-0.6,0.5l-0.6,0.5l-0.6,0.4l-0.6,0.4l-0.6,0.4l-0.7,0.3l-0.7,0.3l-0.7,0.3l-0.7,0.2l-0.7,0.2L20.1,32l-0.7,0.1l-0.8,0.1l-0.8,0.1
	l-0.8,0V32.5L17,32.5z M1.6,17.1l0,0.8l0.1,0.8l0.1,0.8l0.1,0.8l0.2,0.7l0.2,0.7l0.2,0.7l0.3,0.7l0.3,0.7l0.3,0.7l0.4,0.6l0.4,0.6
	l0.4,0.6l0.5,0.6l0.5,0.6L6.1,28l0.5,0.5L7.2,29l0.6,0.5l0.6,0.4L9,30.3l0.6,0.4l0.7,0.3l0.7,0.3l0.7,0.3l0.7,0.2l0.7,0.2l0.7,0.2
	l0.8,0.1l0.8,0.1l0.8,0.1l0.8,0v-0.2l-0.8,0l-0.8-0.1l-0.8-0.1L13.9,32l-0.7-0.2l-0.7-0.2l-0.7-0.2l-0.7-0.3l-0.7-0.3l-0.7-0.3
	l-0.6-0.4l-0.6-0.4l-0.6-0.4l-0.6-0.5l-0.6-0.5l-0.5-0.5l-0.5-0.5l-0.5-0.6l-0.5-0.6l-0.4-0.6L4,25l-0.4-0.6l-0.3-0.7L3,23l-0.3-0.7
	l-0.2-0.7l-0.2-0.7l-0.2-0.7L2,19.4l-0.1-0.8l-0.1-0.8l0-0.8H1.6L1.6,17.1z M17,1.7l-0.8,0l-0.8,0.1l-0.8,0.1L13.9,2l-0.7,0.2
	l-0.7,0.2l-0.7,0.2L11,2.9l-0.7,0.3L9.7,3.5L9,3.9L8.4,4.3L7.8,4.7L7.2,5.2L6.6,5.7L6.1,6.2L5.6,6.7L5.1,7.3L4.7,7.9L4.2,8.5
	L3.8,9.1L3.5,9.7l-0.3,0.7l-0.3,0.7l-0.3,0.7l-0.2,0.7l-0.2,0.7L1.9,14l-0.1,0.8l-0.1,0.8l-0.1,0.8l0,0.8h0.2l0-0.8l0.1-0.8L2,14.8
	L2.1,14l0.2-0.7l0.2-0.7l0.2-0.7L3,11.2l0.3-0.7l0.3-0.7L4,9.2l0.4-0.6L4.8,8l0.5-0.6l0.5-0.6l0.5-0.5l0.5-0.5l0.6-0.5l0.6-0.5
	l0.6-0.4l0.6-0.4l0.6-0.4l0.7-0.3l0.7-0.3l0.7-0.3l0.7-0.2l0.7-0.2l0.7-0.2L14.7,2l0.8-0.1l0.8-0.1l0.8,0V1.7z"/>
<path class="st3" d="M17,31.9c8.1,0,14.8-6.6,14.8-14.8C31.8,9,25.1,2.3,17,2.3C8.9,2.3,2.2,9,2.2,17.1C2.2,25.2,8.9,31.9,17,31.9z"
	/>
<path class="st4" d="M7.6,24c-1.4-1.9-2.3-4.3-2.3-6.9c0-2.6,0.8-5,2.3-6.9l6.9,6.9L7.6,24z"/>
<path class="st4" d="M23.9,26.5c-1.9,1.4-4.3,2.3-6.9,2.3c-2.6,0-5-0.8-6.9-2.3l6.9-6.9L23.9,26.5z"/>
<path class="st4" d="M26.4,10.1c1.4,1.9,2.3,4.3,2.3,6.9c0,2.6-0.8,5-2.3,6.9l-6.9-6.9L26.4,10.1z"/>
<path class="st4" d="M17,5.4c2.6,0,5,0.8,6.9,2.3L17,14.6l-6.9-6.9C12,6.2,14.4,5.4,17,5.4z"/>
</svg>
