<?xml version="1.0" encoding="utf-8"?>
<!-- Generator: Adobe Illustrator 22.0.0, SVG Export Plug-In . SVG Version: 6.00 Build 0)  -->
<svg version="1.1" id="图层_1" xmlns="http://www.w3.org/2000/svg" xmlns:xlink="http://www.w3.org/1999/xlink" x="0px" y="0px"
	 viewBox="0 0 34 34" style="enable-background:new 0 0 34 34;" xml:space="preserve">
<style type="text/css">
	.st0{fill-rule:evenodd;clip-rule:evenodd;fill:#9E9E9F;}
	.st1{fill-rule:evenodd;clip-rule:evenodd;fill:#FFFFFF;stroke:#231815;stroke-width:0.1613;stroke-miterlimit:22.9256;}
	.st2{fill-rule:evenodd;clip-rule:evenodd;fill:#E50012;}
	.st3{fill-rule:evenodd;clip-rule:evenodd;fill:#FFFFFF;}
	.st4{fill-rule:evenodd;clip-rule:evenodd;fill:#231815;}
</style>
<path class="st0" d="M30.9,30.6c1.1,0,1.8-1.3,1.3-2.2l-13.9-24c-0.6-1-2-0.9-2.5,0l-13.9,24c-0.6,1,0.2,2.2,1.3,2.2H30.9z"/>
<path class="st1" d="M30.9,30.3c1.1,0,1.8-1.3,1.3-2.2l-13.9-24c-0.6-1-2-0.9-2.5,0l-13.9,24c-0.6,1,0.2,2.2,1.3,2.2H30.9z"/>
<path class="st2" d="M30.9,29.8c0.7,0,1.1-0.8,0.8-1.4l-13.9-24c-0.4-0.6-1.2-0.6-1.6,0l-13.9,24C2,29,2.5,29.8,3.1,29.8H30.9z"/>
<polygon class="st3" points="6.3,27 27.7,27 17,8.5 "/>
<path class="st4" d="M17.7,14.1c0,0.5-0.4,0.9-0.9,0.9c-0.5,0-0.9-0.4-0.9-0.9c0-0.5,0.4-0.9,0.9-0.9C17.2,13.1,17.7,13.6,17.7,14.1
	z"/>
<path class="st4" d="M18.1,16.9v2.7h-1.9v-2.3L15,19.2c-0.2,0.4-1.4,0.6-1.1,0.2l2.3-3.6c0.4-0.5,1.1-0.7,1.6-0.4
	c0.6,0.4,1.2,1,1.7,1.4c0.2,0.1,0.3,0.3,0.3,0.5v1.2c0,0.5-0.8,1.3-0.8,0.8v-1.9L18.1,16.9z"/>
<path class="st4" d="M17.2,20.3L15,24.4c-0.2,0.5-0.8,0.6-1.3,0.4l2.5-4.6c0-0.1,0.1-0.1,0.1-0.2v-0.1h1.9V20c0,0.1,0,0.2,0.1,0.2
	l1.9,3.4c0.2,0.5,0.1,1-0.4,1.3L17.2,20.3z"/>
<polygon class="st4" points="22.9,26.6 21.3,23.2 22.9,23.2 24.9,26.6 "/>
<path class="st4" d="M19.4,26.6L19,24.2l0.6,1.1l0.2-0.1c0.6-0.3,0.8-1,0.5-1.6l-0.2-0.3h0.2l1.2,3.4H19.4z"/>
<polygon class="st4" points="16,26.6 16.2,23.2 17.8,23.2 18,26.6 "/>
<path class="st4" d="M12.5,26.6l1.2-3.4h0.6l-0.9,1.7l0.2,0.1c0.4,0.2,1,0.2,1.4-0.1l-0.3,1.8H12.5z"/>
<polygon class="st4" points="9.1,26.6 11.1,23.2 12.7,23.2 11.1,26.6 "/>
</svg>
