<?xml version="1.0" encoding="utf-8"?>
<!-- Generator: Adobe Illustrator 22.0.0, SVG Export Plug-In . SVG Version: 6.00 Build 0)  -->
<svg version="1.1" id="图层_1" xmlns="http://www.w3.org/2000/svg" xmlns:xlink="http://www.w3.org/1999/xlink" x="0px" y="0px"
	 viewBox="0 0 4252 1276" style="enable-background:new 0 0 4252 1276;" xml:space="preserve">
<style type="text/css">
	.st0{fill:#FFFFFF;}
	.st1{fill:#03529D;}
</style>
<title>路名牌1</title>
<path class="st0" d="M71,0h4110c39.2,0,71,31.8,71,71v1134c0,39.2-31.8,71-71,71H71c-39.2,0-71-31.8-71-71V71C0,31.8,31.8,0,71,0z"
	/>
<path class="st1" d="M0,855V71C0,31.8,31.8,0,71,0h4110c39.2,0,71,31.8,71,71v784"/>
<polygon class="st0" points="150.3,541 347.8,655 347.8,427 "/>
<polygon class="st0" points="4110.5,540.8 3913.1,426.8 3913.1,654.8 "/>
<circle class="st0" cx="3982.5" cy="541" r="128"/>
<circle class="st0" cx="278.3" cy="541" r="128"/>
</svg>
