<?xml version="1.0" encoding="utf-8"?>
<!-- Generator: Adobe Illustrator 22.0.0, SVG Export Plug-In . SVG Version: 6.00 Build 0)  -->
<svg version="1.1" id="图层_1" xmlns="http://www.w3.org/2000/svg" xmlns:xlink="http://www.w3.org/1999/xlink" x="0px" y="0px"
	 viewBox="0 0 34 34" style="enable-background:new 0 0 34 34;" xml:space="preserve">
<style type="text/css">
	.st0{fill-rule:evenodd;clip-rule:evenodd;fill:#9E9E9F;}
	.st1{fill-rule:evenodd;clip-rule:evenodd;fill:#FFFFFF;}
	.st2{fill-rule:evenodd;clip-rule:evenodd;fill:#231815;}
	.st3{fill-rule:evenodd;clip-rule:evenodd;fill:#E50012;}
</style>
<g>
	<path class="st0" d="M17,32.5c8.4,0,15.3-6.9,15.3-15.3c0-8.4-6.9-15.3-15.3-15.3C8.6,1.9,1.7,8.8,1.7,17.2
		C1.7,25.6,8.6,32.5,17,32.5z"/>
	<ellipse transform="matrix(0.9239 -0.3827 0.3827 0.9239 -5.1755 7.7956)" class="st1" cx="17" cy="16.9" rx="15.3" ry="15.3"/>
	<path class="st2" d="M32.4,16.9h-0.2l0-0.8l-0.1-0.8l-0.1-0.8l-0.1-0.8l-0.2-0.7l-0.2-0.7l-0.2-0.7L31,11l-0.3-0.7l-0.3-0.7L30,9
		l-0.4-0.6l-0.4-0.6l-0.5-0.6l-0.5-0.6l-0.5-0.5l-0.5-0.5l-0.6-0.5l-0.6-0.5l-0.6-0.4l-0.6-0.4l-0.6-0.4l-0.7-0.3l-0.7-0.3l-0.7-0.3
		l-0.7-0.2l-0.7-0.2L20.1,2l-0.8-0.1l-0.8-0.1l-0.8-0.1l-0.8,0V1.5l0.8,0l0.8,0.1l0.8,0.1l0.8,0.1L20.9,2l0.7,0.2l0.7,0.2L23,2.7
		L23.7,3l0.7,0.3L25,3.7l0.6,0.4l0.6,0.4L26.8,5l0.6,0.5L27.9,6l0.5,0.5l0.5,0.6l0.5,0.6l0.4,0.6l0.4,0.6l0.4,0.6l0.3,0.7l0.3,0.7
		l0.3,0.7l0.2,0.7l0.2,0.7l0.2,0.7l0.1,0.8l0.1,0.8l0.1,0.8L32.4,16.9L32.4,16.9z M17,32.3l0.8,0l0.8-0.1l0.8-0.1l0.8-0.1l0.7-0.2
		l0.7-0.2l0.7-0.2l0.7-0.3l0.7-0.3l0.7-0.3l0.6-0.4l0.6-0.4l0.6-0.4l0.6-0.5l0.6-0.5l0.5-0.5l0.5-0.5l0.5-0.6l0.5-0.6l0.4-0.6
		l0.4-0.6l0.4-0.6l0.3-0.7l0.3-0.7l0.3-0.7l0.2-0.7l0.2-0.7l0.2-0.7l0.1-0.8l0.1-0.8l0.1-0.8l0-0.8h-0.2l0,0.8l-0.1,0.8l-0.1,0.8
		L31.9,20l-0.2,0.7l-0.2,0.7l-0.2,0.7L31,22.8l-0.3,0.7l-0.3,0.7L30,24.8l-0.4,0.6L29.2,26l-0.5,0.6l-0.5,0.6l-0.5,0.5l-0.5,0.5
		l-0.6,0.5l-0.6,0.5l-0.6,0.4l-0.6,0.4l-0.6,0.4l-0.7,0.3l-0.7,0.3l-0.7,0.3l-0.7,0.2l-0.7,0.2l-0.7,0.2L19.3,32l-0.8,0.1l-0.8,0.1
		l-0.8,0V32.3L17,32.3z M1.6,16.9l0,0.8l0.1,0.8l0.1,0.8L1.9,20l0.2,0.7l0.2,0.7l0.2,0.7l0.3,0.7l0.3,0.7l0.3,0.7l0.4,0.6l0.4,0.6
		l0.4,0.6l0.5,0.6l0.5,0.6l0.5,0.5l0.5,0.5l0.6,0.5l0.6,0.5l0.6,0.4L9,30.1l0.6,0.4l0.7,0.3l0.7,0.3l0.7,0.3l0.7,0.2l0.7,0.2
		l0.7,0.2l0.8,0.1l0.8,0.1l0.8,0.1l0.8,0v-0.2l-0.8,0l-0.8-0.1L14.7,32l-0.7-0.1l-0.7-0.2l-0.7-0.2l-0.7-0.2l-0.7-0.3l-0.7-0.3
		l-0.7-0.3l-0.6-0.4l-0.6-0.4l-0.6-0.4l-0.6-0.5l-0.6-0.5l-0.5-0.5l-0.5-0.5l-0.5-0.6L4.8,26l-0.4-0.6L4,24.8l-0.4-0.6l-0.3-0.7
		L3,22.8l-0.3-0.7l-0.2-0.7l-0.2-0.7L2.1,20L2,19.2l-0.1-0.8l-0.1-0.8l0-0.8H1.6L1.6,16.9z M17,1.5l-0.8,0l-0.8,0.1l-0.8,0.1
		l-0.8,0.1L13.2,2l-0.7,0.2l-0.7,0.2L11,2.7L10.3,3L9.7,3.4L9,3.7L8.4,4.1L7.8,4.6L7.2,5L6.6,5.5L6.1,6L5.6,6.5L5.1,7.1L4.7,7.7
		L4.2,8.3L3.8,8.9L3.5,9.6l-0.3,0.7l-0.3,0.7l-0.3,0.7l-0.2,0.7l-0.2,0.7l-0.2,0.7l-0.1,0.8l-0.1,0.8l-0.1,0.8l0,0.8h0.2l0-0.8
		l0.1-0.8L2,14.6l0.1-0.8l0.2-0.7l0.2-0.7l0.2-0.7L3,11l0.3-0.7l0.3-0.7L4,9l0.4-0.6l0.4-0.6l0.5-0.6l0.5-0.6l0.5-0.5l0.5-0.5
		l0.6-0.5l0.6-0.5l0.6-0.4l0.6-0.4l0.6-0.4l0.7-0.3l0.7-0.3l0.7-0.3l0.7-0.2l0.7-0.2L13.9,2l0.7-0.1l0.8-0.1l0.8-0.1l0.8,0V1.5z"/>
	<path class="st3" d="M17,31.7c8.1,0,14.8-6.6,14.8-14.8S25.1,2.1,17,2.1S2.2,8.8,2.2,16.9S8.9,31.7,17,31.7z"/>
	<path class="st1" d="M17,28.6c6.4,0,11.7-5.3,11.7-11.7c0-6.4-5.3-11.7-11.7-11.7c-6.4,0-11.7,5.3-11.7,11.7S10.6,28.6,17,28.6z"/>
	<path class="st2" d="M16.1,11.3v7.3h0.8v1.9h-0.8v2h-2.8v-2H10v-1.9l2.4-7.3H16.1L16.1,11.3z M24,15.1v3.7c0,0.8,0,1.5-0.1,1.8
		c-0.1,0.4-0.3,0.7-0.6,1.1c-0.3,0.3-0.6,0.6-1,0.7c-0.4,0.1-0.9,0.2-1.4,0.2c-0.7,0-1.2-0.1-1.7-0.2c-0.4-0.2-0.8-0.4-1.1-0.7
		c-0.3-0.3-0.4-0.7-0.6-1c-0.1-0.4-0.2-0.9-0.2-1.7l0-3.9c0-1,0.1-1.8,0.3-2.3c0.2-0.5,0.5-0.9,1.1-1.2c0.5-0.3,1.2-0.5,1.9-0.5
		c0.6,0,1.2,0.1,1.6,0.3c0.5,0.2,0.8,0.5,1.1,0.8c0.2,0.3,0.4,0.7,0.5,1C24,13.7,24,14.3,24,15.1z"/>
	<path class="st1" d="M21.2,14.2c0-0.6,0-1-0.1-1.1c-0.1-0.2-0.2-0.2-0.4-0.2c-0.2,0-0.3,0.1-0.4,0.2c-0.1,0.2-0.1,0.5-0.1,1.1v5.4
		c0,0.6,0,1,0.1,1.2c0.1,0.1,0.2,0.2,0.4,0.2c0.2,0,0.3-0.1,0.4-0.2c0.1-0.2,0.1-0.5,0.1-1.1L21.2,14.2L21.2,14.2z M13.3,18.6v-4.7
		l-1.2,4.7H13.3z"/>
</g>
</svg>
