<?xml version="1.0" encoding="utf-8"?>
<!-- Generator: Adobe Illustrator 22.0.0, SVG Export Plug-In . SVG Version: 6.00 Build 0)  -->
<svg version="1.1" id="图层_1" xmlns="http://www.w3.org/2000/svg" xmlns:xlink="http://www.w3.org/1999/xlink" x="0px" y="0px"
	 viewBox="0 0 34 34" style="enable-background:new 0 0 34 34;" xml:space="preserve">
<style type="text/css">
	.st0{fill-rule:evenodd;clip-rule:evenodd;fill:#9E9E9F;}
	.st1{fill-rule:evenodd;clip-rule:evenodd;fill:#FFFFFF;}
	.st2{fill-rule:evenodd;clip-rule:evenodd;fill:#231815;}
	.st3{fill-rule:evenodd;clip-rule:evenodd;fill:#008BD5;}
</style>
<path class="st0" d="M17,32.5c8.4,0,15.3-6.9,15.3-15.3c0-8.4-6.9-15.3-15.3-15.3C8.6,1.9,1.7,8.7,1.7,17.2
	C1.7,25.6,8.6,32.5,17,32.5z"/>
<path class="st1" d="M17,1.6c8.5,0,15.3,6.9,15.3,15.3c0,8.5-6.9,15.3-15.3,15.3c-8.5,0-15.3-6.9-15.3-15.3S8.5,1.6,17,1.6z"/>
<path class="st2" d="M32.4,16.9h-0.2l0-0.8l-0.1-0.8L32,14.6l-0.1-0.7l-0.2-0.7l-0.2-0.7l-0.2-0.7L31,11l-0.3-0.7l-0.3-0.7L30,9
	l-0.4-0.6l-0.4-0.6l-0.5-0.6l-0.5-0.6l-0.5-0.5l-0.5-0.5l-0.6-0.5l-0.6-0.5l-0.6-0.4l-0.6-0.4l-0.6-0.4l-0.7-0.3l-0.7-0.3l-0.7-0.3
	l-0.7-0.2l-0.7-0.2L20.1,2l-0.7-0.1l-0.8-0.1l-0.8-0.1l-0.8,0V1.5l0.8,0l0.8,0.1l0.8,0.1l0.8,0.1L20.8,2l0.7,0.2l0.7,0.2L23,2.7
	L23.7,3l0.7,0.3L25,3.7l0.6,0.4l0.6,0.4L26.8,5l0.6,0.5L27.9,6l0.5,0.5l0.5,0.6l0.5,0.6l0.4,0.6l0.4,0.6l0.4,0.6l0.3,0.7l0.3,0.7
	l0.3,0.7l0.2,0.7l0.2,0.7l0.2,0.7l0.1,0.8l0.1,0.8l0.1,0.8L32.4,16.9L32.4,16.9z M17,32.3l0.8,0l0.8-0.1l0.8-0.1l0.8-0.1l0.7-0.2
	l0.7-0.2l0.7-0.2l0.7-0.3l0.7-0.3l0.7-0.3l0.6-0.4l0.6-0.4l0.6-0.4l0.6-0.5l0.6-0.5l0.5-0.5l0.5-0.5l0.5-0.6l0.5-0.6l0.4-0.6
	l0.4-0.6l0.4-0.6l0.3-0.7l0.3-0.7l0.3-0.7l0.2-0.7l0.2-0.7l0.2-0.7l0.1-0.8l0.1-0.8l0.1-0.8l0-0.8h-0.2l0,0.8l-0.1,0.8L32,19.2
	L31.9,20l-0.2,0.7l-0.2,0.7l-0.2,0.7L31,22.8l-0.3,0.7l-0.3,0.7L30,24.8l-0.4,0.6L29.2,26l-0.5,0.6l-0.5,0.6l-0.5,0.5l-0.5,0.5
	l-0.6,0.5l-0.6,0.5l-0.6,0.4l-0.6,0.4l-0.6,0.4l-0.7,0.3l-0.7,0.3l-0.7,0.3l-0.7,0.2l-0.7,0.2l-0.7,0.2l-0.7,0.1L18.6,32l-0.8,0.1
	l-0.8,0V32.3L17,32.3z M1.6,16.9l0,0.8l0.1,0.8l0.1,0.8L1.9,20l0.2,0.7l0.2,0.7l0.2,0.7l0.3,0.7l0.3,0.7l0.3,0.7l0.4,0.6l0.4,0.6
	l0.4,0.6l0.5,0.6l0.5,0.6l0.5,0.5l0.5,0.5l0.6,0.5l0.6,0.5l0.6,0.4L9,30.1l0.6,0.4l0.7,0.3l0.7,0.3l0.7,0.3l0.7,0.2l0.7,0.2l0.7,0.2
	l0.8,0.1l0.8,0.1l0.8,0.1l0.8,0v-0.2l-0.8,0L15.4,32l-0.8-0.1l-0.7-0.1l-0.7-0.2l-0.7-0.2l-0.7-0.2l-0.7-0.3l-0.7-0.3l-0.7-0.3
	l-0.6-0.4l-0.6-0.4l-0.6-0.4l-0.6-0.5l-0.6-0.5l-0.5-0.5l-0.5-0.5l-0.5-0.6L4.8,26l-0.4-0.6L4,24.8l-0.4-0.6l-0.3-0.7L3,22.8
	l-0.3-0.7l-0.2-0.7l-0.2-0.7L2.1,20l-0.1-0.7l-0.1-0.8l-0.1-0.8l0-0.8H1.6L1.6,16.9z M17,1.5l-0.8,0l-0.8,0.1l-0.8,0.1l-0.8,0.1
	L13.1,2l-0.7,0.2l-0.7,0.2L11,2.7L10.3,3L9.6,3.3L9,3.7L8.4,4.1L7.8,4.5L7.2,5L6.6,5.5L6.1,6L5.6,6.5L5.1,7.1L4.6,7.7L4.2,8.3
	L3.8,8.9L3.4,9.5l-0.3,0.7l-0.3,0.7l-0.3,0.7l-0.2,0.7L2.1,13l-0.2,0.7l-0.1,0.8l-0.1,0.8l-0.1,0.8l0,0.8h0.2l0-0.8l0.1-0.8l0.1-0.8
	l0.1-0.7l0.2-0.7l0.2-0.7l0.2-0.7L3,11l0.3-0.7l0.3-0.7L4,9l0.4-0.6l0.4-0.6l0.5-0.6l0.5-0.6l0.5-0.5l0.5-0.5l0.6-0.5l0.6-0.5
	l0.6-0.4l0.6-0.4l0.6-0.4l0.7-0.3l0.7-0.3l0.7-0.3l0.7-0.2l0.7-0.2L13.9,2l0.7-0.1l0.8-0.1l0.8-0.1l0.8,0V1.5z"/>
<ellipse transform="matrix(0.9747 -0.2233 0.2233 0.9747 -3.3411 4.2214)" class="st3" cx="17" cy="16.9" rx="14.8" ry="14.8"/>
<path class="st1" d="M15.2,9.8v0.9c-0.7,0-2-0.2-2.3,0.6l-0.3,1.1h7.9l0.3-0.9l-1.9-0.4c-0.3-0.1-0.2-0.4,0.1-0.4h3.7v0.9h-1
	l-0.3,0.9l1.3,2.9c2.3-0.7,4.8,0.5,5.6,2.8c0.7,2.3-0.5,4.8-2.8,5.6c-2.5,0.8-5.2-0.8-5.7-3.3h-1.6l0.3,0.5l0.5-0.3l0.3,0.5
	l-1.5,0.8l-0.3-0.5l0.4-0.2l-0.4-0.8c0,0,0,0-0.1,0c-0.8,0-1.4-0.6-1.4-1.4c0-0.1,0-0.1,0-0.2L12,14.3l-0.3,1.1
	c2.2,0.9,3.3,3.5,2.3,5.8c-0.9,2.2-3.5,3.3-5.8,2.3c-2.2-0.9-3.3-3.5-2.3-5.8c0.8-1.9,2.9-3,4.9-2.6l1.3-4.1
	C12.5,9.6,14.1,9.8,15.2,9.8z"/>
<polygon class="st3" points="15.9,17.4 16.2,17.7 16,17.3 "/>
<path class="st3" d="M12.3,13.4l3.2,3.6l1.2-0.6l0.3,0.5l-0.4,0.2l0.3,0.6c0.2-0.1,0.3-0.1,0.5-0.1c0.4,0,0.7,0.2,1,0.4l1.7-4.7
	H12.3z"/>
<path class="st3" d="M10.6,16.1l-1,3.3c-0.2,0.5,0.7,0.8,0.8,0.3l1-3.3c1.8,0.8,2.6,2.9,1.8,4.7c-0.8,1.8-2.9,2.6-4.7,1.8
	c-1.8-0.8-2.6-2.9-1.8-4.7C7.4,16.6,9,15.8,10.6,16.1z"/>
<path class="st3" d="M18.8,19.5h0.9c0-1.6,0.8-3,2.2-3.8l-0.9-2L18.8,19.5z"/>
<path class="st3" d="M20.5,19.5h3.1l-1.3-3C21.2,17.1,20.5,18.3,20.5,19.5z"/>
<path class="st3" d="M20.6,20.4h3.6c0.3,0,0.5-0.4,0.4-0.6L23,16.2c1.9-0.6,3.8,0.5,4.4,2.4c0.6,1.9-0.5,3.8-2.4,4.4
	C23.2,23.4,21,22.3,20.6,20.4z"/>
</svg>
